<svg width="35" height="35" viewBox="0 0 35 35" fill="none" xmlns="http://www.w3.org/2000/svg">
<path d="M17.4999 20.4167L16.4687 21.4479L17.4999 22.4791L18.5311 21.4479L17.4999 20.4167ZM18.9583 7.29166C18.9583 6.48624 18.3053 5.83332 17.4999 5.83332C16.6945 5.83332 16.0416 6.48624 16.0416 7.29166L18.9583 7.29166ZM9.17705 14.1562L16.4687 21.4479L18.5311 19.3855L11.2394 12.0938L9.17705 14.1562ZM18.5311 21.4479L25.8228 14.1562L23.7604 12.0938L16.4687 19.3855L18.5311 21.4479ZM18.9583 20.4167L18.9583 7.29166L16.0416 7.29166L16.0416 20.4167L18.9583 20.4167Z" fill="#060901"/>
<path d="M7.29175 23.3333L7.29175 24.7917C7.29175 26.4025 8.59758 27.7083 10.2084 27.7083L24.7917 27.7083C26.4026 27.7083 27.7084 26.4025 27.7084 24.7917V23.3333" stroke="#060901" stroke-width="2.91667"/>
</svg>
