<svg width="94" height="79" viewBox="0 0 94 79" fill="none" xmlns="http://www.w3.org/2000/svg">
<rect width="94" height="79" rx="39.5" fill="#DDEAC7"/>
<path d="M35.028 42.28C35.424 41.668 36.576 41.992 36.648 42.712C34.344 48.184 31.356 52.396 22.788 52.396C16.416 52.396 8.712 50.452 8.712 43.972C8.712 39.004 14.724 37.78 19.908 37.492C15.624 36.736 12.096 34.72 12.096 30.832C12.096 27.268 15.12 24.964 21.132 24.964C27.54 24.964 36.108 27.808 36.108 29.788C36.108 31.192 34.812 32.416 33.696 32.416C31.248 32.416 25.128 28.204 18.216 28.204C15.516 28.204 14.04 29.464 14.04 31.336C14.04 33.784 17.352 36.232 24.84 36.232C27.54 36.232 29.232 35.764 30.78 35.764C31.932 35.764 32.22 36.376 32.22 37.168C32.22 38.536 31.032 40.264 29.232 40.264C27.504 40.264 24.12 39.22 19.908 39.22C15.408 39.22 11.448 40.372 11.448 43.216C11.448 46.924 18.144 48.436 22.788 48.436C31.608 48.436 33.696 45.556 35.028 42.28ZM62.9516 42.28C63.3476 41.668 64.4996 41.992 64.5716 42.712C62.4116 47.752 60.5396 52.36 55.6436 52.36C53.7716 52.36 52.4756 51.568 51.6476 50.56C49.9916 51.568 47.9396 52.396 45.6356 52.396C39.8396 52.396 34.8356 47.752 34.8356 40.336C34.8356 32.74 39.8396 24.964 51.5396 24.964C55.4996 24.964 58.1996 26.152 60.3956 27.448C60.9716 26.26 62.2676 24.964 63.7436 24.964C65.4356 24.964 66.3356 26.188 66.3356 27.628C66.3356 31.084 55.8956 36.88 55.8956 44.584C55.8956 47.392 56.4716 48.76 58.0196 48.76C59.4956 48.76 60.8276 47.5 62.9516 42.28ZM44.1956 48.328C52.0436 48.4 57.0836 37.06 59.0276 32.128C56.9036 30.868 53.7716 29.212 49.3076 29.212C42.6476 29.212 36.9236 33.1 36.9236 39.76C36.9236 42.712 38.6516 48.4 44.1956 48.328ZM82.8368 24.82C86.1128 24.82 85.7528 29.68 84.6728 29.68C84.1688 29.68 84.4208 28.528 82.1528 28.528C80.4968 28.528 78.6968 28.708 76.8248 28.996C75.7088 34.468 69.8768 39.22 69.8768 43.828C69.8768 46.096 71.3168 48.076 73.8368 48.076C77.5088 48.076 79.3448 45.34 80.6408 42.28C81.0368 41.668 82.1888 41.992 82.2608 42.712C80.1008 47.752 77.8688 52.36 71.7128 52.36C68.5808 52.36 65.7728 50.236 65.7728 46.528C65.7728 40.768 73.2608 35.224 74.7368 29.32C69.9848 30.148 65.0888 31.3 61.4888 31.3C59.4008 31.3 58.2848 30.364 58.2848 28.456C58.2848 27.088 59.1128 25.936 59.7248 25.936C60.4808 25.936 59.7248 27.376 62.3888 27.376C67.6088 27.376 77.5088 24.82 82.8368 24.82Z" fill="#1A2704"/>
</svg>
