<svg width="39" height="39" viewBox="0 0 39 39" fill="none" xmlns="http://www.w3.org/2000/svg">
<path d="M19.5056 3.51254C24.7173 3.51254 25.3344 3.53539 27.3841 3.62683C29.2889 3.71064 30.3175 4.03065 31.0033 4.29733C31.91 4.64782 32.5652 5.07451 33.2434 5.75263C33.9291 6.43838 34.3482 7.08603 34.6987 7.99273C34.9653 8.67848 35.2854 9.71471 35.3692 11.6119C35.4606 13.6692 35.4835 14.2863 35.4835 19.4904C35.4835 24.702 35.4606 25.3192 35.3692 27.3688C35.2854 29.2737 34.9653 30.3023 34.6987 30.988C34.3482 31.8947 33.9215 32.55 33.2434 33.2281C32.5576 33.9139 31.91 34.3329 31.0033 34.6834C30.3175 34.9501 29.2813 35.2701 27.3841 35.3539C25.3268 35.4454 24.7097 35.4682 19.5056 35.4682C14.294 35.4682 13.6768 35.4454 11.6272 35.3539C9.72233 35.2701 8.69372 34.9501 8.00797 34.6834C7.10126 34.3329 6.446 33.9063 5.76787 33.2281C5.08213 32.5424 4.66306 31.8947 4.31257 30.988C4.04589 30.3023 3.72588 29.2661 3.64206 27.3688C3.55063 25.3116 3.52777 24.6944 3.52777 19.4904C3.52777 14.2787 3.55063 13.6616 3.64206 11.6119C3.72588 9.70709 4.04589 8.67848 4.31257 7.99273C4.66306 7.08603 5.08975 6.43076 5.76787 5.75263C6.45362 5.06689 7.10126 4.64782 8.00797 4.29733C8.69372 4.03065 9.72995 3.71064 11.6272 3.62683C13.6768 3.53539 14.294 3.51254 19.5056 3.51254ZM19.5056 0C14.2101 0 13.5473 0.0228581 11.4672 0.114291C9.3947 0.205723 7.96987 0.540976 6.73553 1.021C5.44786 1.52388 4.35829 2.18676 3.27633 3.27633C2.18676 4.35829 1.52388 5.44786 1.021 6.72792C0.540976 7.96987 0.205723 9.38708 0.114291 11.4596C0.0228581 13.5473 0 14.2101 0 19.5056C0 24.8011 0.0228581 25.464 0.114291 27.5441C0.205723 29.6165 0.540976 31.0414 1.021 32.2757C1.52388 33.5634 2.18676 34.653 3.27633 35.7349C4.35829 36.8169 5.44786 37.4874 6.72791 37.9826C7.96987 38.4626 9.38708 38.7979 11.4596 38.8893C13.5396 38.9808 14.2025 39.0036 19.498 39.0036C24.7935 39.0036 25.4564 38.9808 27.5364 38.8893C29.6089 38.7979 31.0337 38.4626 32.2681 37.9826C33.5481 37.4874 34.6377 36.8169 35.7197 35.7349C36.8016 34.653 37.4721 33.5634 37.9674 32.2833C38.4474 31.0414 38.7827 29.6242 38.8741 27.5517C38.9655 25.4716 38.9884 24.8087 38.9884 19.5132C38.9884 14.2178 38.9655 13.5549 38.8741 11.4748C38.7827 9.40232 38.4474 7.97749 37.9674 6.74315C37.4874 5.44786 36.8245 4.35829 35.7349 3.27633C34.653 2.19438 33.5634 1.52388 32.2833 1.02862C31.0414 0.548595 29.6242 0.213343 27.5517 0.12191C25.464 0.0228582 24.8011 0 19.5056 0Z" fill="black"/>
<path d="M19.5056 9.48608C13.9739 9.48608 9.48608 13.9739 9.48608 19.5056C9.48608 25.0372 13.9739 29.5251 19.5056 29.5251C25.0372 29.5251 29.5251 25.0372 29.5251 19.5056C29.5251 13.9739 25.0372 9.48608 19.5056 9.48608ZM19.5056 26.0049C15.9168 26.0049 13.0062 23.0943 13.0062 19.5056C13.0062 15.9168 15.9168 13.0062 19.5056 13.0062C23.0943 13.0062 26.0049 15.9168 26.0049 19.5056C26.0049 23.0943 23.0943 26.0049 19.5056 26.0049Z" fill="black"/>
<path d="M32.2605 9.08989C32.2605 10.3852 31.209 11.429 29.9213 11.429C28.626 11.429 27.5822 10.3776 27.5822 9.08989C27.5822 7.79459 28.6336 6.75073 29.9213 6.75073C31.209 6.75073 32.2605 7.80221 32.2605 9.08989Z" fill="black"/>
</svg>
