<svg width="76" height="76" viewBox="0 0 76 76" fill="none" xmlns="http://www.w3.org/2000/svg">
<path fill-rule="evenodd" clip-rule="evenodd" d="M66.3067 11.9085C66.7255 12.6761 66.4426 13.6379 65.675 14.0567L56.9666 18.8067C56.476 19.0742 55.8806 19.0635 55.4001 18.7782C54.9195 18.4928 54.625 17.9754 54.625 17.4166V15.3338L48.2583 18.8067C47.4905 19.2254 46.5288 18.9425 46.11 18.1749C45.6912 17.4071 45.9742 16.4454 46.7418 16.0266L55.4501 11.2766C55.9408 11.0091 56.5361 11.0199 57.0167 11.3051C57.4972 11.5904 57.7917 12.1078 57.7917 12.6666V14.7495L64.1585 11.2766C64.9262 10.8579 65.8879 11.1408 66.3067 11.9085Z" fill="black"/>
<path fill-rule="evenodd" clip-rule="evenodd" d="M47.6517 53.157C48.0254 52.3664 48.969 52.0282 49.7598 52.4017L58.226 56.4018C58.7323 56.6411 59.0747 57.13 59.1263 57.6877C59.1777 58.2452 58.9311 58.7886 58.4771 59.1166L56.3833 60.63L62.4264 63.485C63.217 63.8587 63.5552 64.8024 63.1817 65.5931C62.808 66.3837 61.8643 66.7219 61.0736 66.3483L52.6074 62.3482C52.101 62.109 51.7587 61.62 51.7071 61.0624C51.6555 60.5049 51.9023 59.9615 52.3563 59.6334L54.4501 58.1201L48.407 55.265C47.6164 54.8913 47.2782 53.9477 47.6517 53.157Z" fill="black"/>
<path fill-rule="evenodd" clip-rule="evenodd" d="M59.4015 33.5904C59.8684 33.959 60.0894 34.5581 59.9735 35.1418L59.3201 38.4322L64.2553 36.1633C65.0498 35.7981 65.99 36.1459 66.3553 36.9404C66.7206 37.7349 66.3726 38.6751 65.578 39.0404L57.8243 42.6053C57.2836 42.8539 56.6493 42.7783 56.1822 42.4097C55.715 42.0411 55.494 41.4418 55.6099 40.8582L56.2636 37.5665L51.3276 39.8337C50.5329 40.1986 49.5929 39.8503 49.2279 39.0556C48.863 38.2609 49.2111 37.3209 50.0058 36.9559L57.7597 33.3946C58.3003 33.1461 58.9344 33.2218 59.4015 33.5904Z" fill="black"/>
<path fill-rule="evenodd" clip-rule="evenodd" d="M35.15 9.5V18.2693C35.15 20.7616 33.6536 22.4053 32.2842 23.2261C31.1641 23.8974 29.9522 24.1593 29.2367 24.2918C28.4745 24.4331 27.6338 24.5303 26.9425 24.6102C26.9075 24.6143 26.8728 24.6183 26.8386 24.6223C26.0631 24.712 25.3754 24.7934 24.7098 24.9074C23.2791 25.1524 22.6065 25.4534 22.3359 25.6609C22.2897 25.6964 22.2724 25.7168 22.2699 25.7198C22.2699 25.7198 22.2663 25.7241 22.2612 25.7347C22.2579 25.7418 22.2278 25.8045 22.2026 25.9478C22.2658 25.9727 22.3377 25.9993 22.4192 26.0273C23.7723 26.4907 25.6999 26.6912 28.4815 26.9805C28.6488 26.9979 28.8195 27.0156 28.9932 27.0337C31.6168 27.3076 35.165 27.6906 38.0511 28.9752C39.586 29.6582 41.214 30.7091 42.4501 32.3809C43.7298 34.1113 44.3333 36.1619 44.3333 38.3654C44.3333 40.724 43.5795 42.9212 41.9514 44.6486C40.4352 46.2572 38.5231 47.0709 36.8787 47.5209C33.8784 48.3419 30.1695 48.3354 27.2829 48.3303C27.1573 48.3301 27.0334 48.3298 26.911 48.3297C23.5163 48.3257 21.0887 48.3628 19.4756 48.8093C19.2671 48.8671 19.1129 48.9218 19.0017 48.9673C19.0171 49.4982 19.1259 49.6785 19.1292 49.6839C19.1363 49.6964 19.145 49.7095 19.1686 49.732C19.1952 49.7574 19.2565 49.8095 19.3768 49.8782C20.0062 50.2377 21.2529 50.534 23.361 50.6424C24.317 50.6917 25.2869 50.6987 26.3185 50.7059L26.406 50.7066C27.4075 50.7137 28.5494 50.7218 29.5757 50.8005C30.4948 50.8709 31.9197 51.0293 33.2296 51.6404C33.9435 51.9734 34.8533 52.5447 35.5876 53.5265C36.3723 54.5754 36.7333 55.7962 36.7333 57V66.5H27.2333V60.2148C26.958 60.211 26.6608 60.2086 26.3387 60.2063L26.1863 60.2051C25.204 60.1983 24.0447 60.1903 22.8724 60.1299C20.5471 60.0101 17.3605 59.667 14.6649 58.1273C13.2255 57.3051 11.8666 56.1106 10.8948 54.4215C9.92588 52.7375 9.5 50.8369 9.5 48.8398C9.5 46.4813 10.2485 44.283 11.8694 42.5499C13.3817 40.933 15.2923 40.1101 16.941 39.6536C19.959 38.8183 23.6887 38.8244 26.584 38.8292C26.6982 38.8294 26.8109 38.8297 26.9224 38.8297C30.3213 38.8338 32.752 38.8008 34.3713 38.3578C34.5694 38.3035 34.7185 38.2521 34.8284 38.2085C34.8218 38.1116 34.8097 38.0513 34.8002 38.0177C34.7551 37.9731 34.5947 37.8352 34.1884 37.6544C32.9183 37.0891 30.9249 36.787 28.0068 36.4824C27.7566 36.4563 27.4966 36.43 27.2283 36.4029C24.8343 36.1608 21.7886 35.853 19.3412 35.0148C17.9054 34.523 16.2187 33.7111 14.8709 32.2436C13.4097 30.653 12.6667 28.6397 12.6667 26.4295C12.6667 22.8526 14.0939 20.0097 16.5547 18.1225C18.7185 16.4632 21.2917 15.8544 23.1068 15.5437C24.0238 15.3867 24.9204 15.281 25.65 15.1964V9.5H35.15ZM34.7865 37.9831C34.7865 37.9831 34.7915 37.9894 34.7972 38.0076C34.7887 37.993 34.7865 37.9831 34.7865 37.9831Z" fill="black"/>
</svg>
