<svg width="40" height="40" viewBox="0 0 40 40" fill="none" xmlns="http://www.w3.org/2000/svg">
<path d="M36.1235 0H2.88013C1.28768 0 0 1.2572 0 2.81155V36.1921C0 37.7464 1.28768 39.0112 2.88013 39.0112H36.1235C37.7159 39.0112 39.0112 37.7464 39.0112 36.1997V2.81155C39.0112 1.2572 37.7159 0 36.1235 0ZM11.5738 33.2434H5.78311V14.6216H11.5738V33.2434ZM8.67848 12.0843C6.81935 12.0843 5.31833 10.5833 5.31833 8.73181C5.31833 6.8803 6.81935 5.37928 8.67848 5.37928C10.53 5.37928 12.031 6.8803 12.031 8.73181C12.031 10.5757 10.53 12.0843 8.67848 12.0843ZM33.2434 33.2434H27.4603V24.1915C27.4603 22.0353 27.4222 19.2542 24.4506 19.2542C21.4409 19.2542 20.9838 21.6086 20.9838 24.0392V33.2434H15.2083V14.6216H20.7552V17.1665H20.8314C21.6009 15.7035 23.4906 14.1568 26.3021 14.1568C32.1614 14.1568 33.2434 18.0122 33.2434 23.0258V33.2434Z" fill="black"/>
</svg>
