<svg width="150" height="33" viewBox="0 0 150 33" fill="none" xmlns="http://www.w3.org/2000/svg">
<path d="M14.0664 16.36C14.4184 15.816 15.4424 16.104 15.5064 16.744C13.5864 21.224 11.5704 25.32 7.41038 25.32C5.26638 25.32 3.05838 24.168 3.05838 21C3.05838 18.152 5.29838 14.344 7.09038 11.304C6.32238 11.432 5.55438 11.496 4.81838 11.56C4.08238 13.288 3.34637 15.144 2.67438 16.744C1.29838 17.16 1.23438 16.84 1.23438 16.36C1.97038 14.664 2.61038 13.064 3.21838 11.592C1.61838 11.496 0.466375 11.048 0.466375 9.8C0.466375 8.392 1.58638 7.272 2.38638 7.272C3.05838 7.272 2.67438 8.392 4.46638 8.392H4.59438C6.61038 3.784 8.37038 0.935999 10.9944 0.935999C12.3064 0.935999 12.9464 1.896 12.9464 2.952C12.9464 4.392 12.1464 5.96 11.0584 7.688C12.6584 7.464 14.0344 7.24 14.6744 7.24C16.9464 7.24 15.7304 11.368 14.5464 11.4C14.0984 11.4 14.0984 10.504 12.5624 10.504C11.8264 10.504 10.4824 10.76 8.94638 11.016C7.37838 13.48 5.97038 16.136 5.97038 18.888C5.97038 20.68 7.18638 21.512 8.78638 21.512C10.4504 21.512 12.4344 20.36 14.0664 16.36ZM6.38638 8.296C7.21838 8.232 8.05038 8.136 8.91438 8.008C9.45837 6.792 9.49038 6.056 8.59438 6.056C7.92238 6.056 7.15438 6.952 6.38638 8.296ZM29.3421 16.36C29.6941 15.816 30.7181 16.104 30.7821 16.744C28.8621 21.224 27.1981 25.32 23.5821 25.32C21.3741 25.32 20.0301 23.944 20.0301 21.96C20.0301 18.568 23.9341 16.104 23.9341 13.96C23.9341 13.32 23.7421 12.936 23.0701 12.936C21.5981 12.936 18.3981 14.344 16.0621 15.464C15.8701 15.944 15.6781 16.36 15.5181 16.744C14.7821 17.16 14.0781 16.84 14.0781 16.36C16.0621 10.984 16.3821 10.344 16.3821 9C16.3821 7.336 17.0861 6.408 18.4301 6.408C19.8701 6.408 20.3821 6.984 20.3821 7.848C20.3821 9 19.2941 9.576 19.2941 10.344C19.2941 11.496 22.8461 8.68 25.6941 8.68C27.1341 8.68 27.7101 9.576 27.7101 10.536C27.7101 13.576 23.4221 16.104 23.4221 20.584C23.4221 21.32 23.7421 22.12 24.6701 22.12C26.2701 22.12 27.4541 21 29.3421 16.36ZM52.4641 16.36C52.8161 15.816 53.8401 16.104 53.9041 16.744C51.8561 21.608 49.2001 25.352 41.5841 25.352C35.9201 25.352 29.0721 23.624 29.0721 17.864C29.0721 13.448 34.4161 12.36 39.0241 12.104C35.2161 11.432 32.0801 9.64 32.0801 6.184C32.0801 3.016 34.7681 0.967999 40.1121 0.967999C45.8081 0.967999 53.4241 3.496 53.4241 5.256C53.4241 6.504 52.2721 7.592 51.2801 7.592C49.1041 7.592 43.6641 3.848 37.5201 3.848C35.1201 3.848 33.8081 4.968 33.8081 6.632C33.8081 8.808 36.7521 10.984 43.4081 10.984C45.8081 10.984 47.3121 10.568 48.6881 10.568C49.7121 10.568 49.9681 11.112 49.9681 11.816C49.9681 13.032 48.9121 14.568 47.3121 14.568C45.7761 14.568 42.7681 13.64 39.0241 13.64C35.0241 13.64 31.5041 14.664 31.5041 17.192C31.5041 20.488 37.4561 21.832 41.5841 21.832C49.4241 21.832 51.2801 19.272 52.4641 16.36ZM77.2851 16.36C77.6371 15.816 78.6611 16.104 78.7251 16.744C76.8051 21.224 75.1411 25.32 70.7891 25.32C69.1251 25.32 67.9731 24.616 67.2371 23.72C65.7651 24.616 63.9411 25.352 61.8931 25.352C56.7411 25.352 52.2931 21.224 52.2931 14.632C52.2931 7.88 56.7411 0.967999 67.1411 0.967999C70.6611 0.967999 73.0611 2.024 75.0131 3.176C75.5251 2.12 76.6771 0.967999 77.9891 0.967999C79.4931 0.967999 80.2931 2.056 80.2931 3.336C80.2931 6.408 71.0131 11.56 71.0131 18.408C71.0131 20.904 71.5251 22.12 72.9011 22.12C74.2131 22.12 75.3971 21 77.2851 16.36ZM60.6131 21.736C67.5891 21.8 72.0691 11.72 73.7971 7.336C71.9091 6.216 69.1251 4.744 65.1571 4.744C59.2371 4.744 54.1491 8.2 54.1491 14.12C54.1491 16.744 55.6851 21.8 60.6131 21.736ZM94.9609 0.839998C97.8729 0.839998 97.5529 5.16 96.5929 5.16C96.1449 5.16 96.3689 4.136 94.3529 4.136C92.8809 4.136 91.2809 4.296 89.6169 4.552C88.6249 9.416 83.4409 13.64 83.4409 17.736C83.4409 19.752 84.7209 21.512 86.9609 21.512C90.2249 21.512 91.8569 19.08 93.0089 16.36C93.3609 15.816 94.3849 16.104 94.4489 16.744C92.5289 21.224 90.5449 25.32 85.0729 25.32C82.2889 25.32 79.7929 23.432 79.7929 20.136C79.7929 15.016 86.4489 10.088 87.7609 4.84C83.5369 5.576 79.1849 6.6 75.9849 6.6C74.1289 6.6 73.1369 5.768 73.1369 4.072C73.1369 2.856 73.8729 1.832 74.4169 1.832C75.0889 1.832 74.4169 3.112 76.7849 3.112C81.4249 3.112 90.2249 0.839998 94.9609 0.839998ZM103.704 7.496C102.392 7.496 101.304 6.408 101.304 5.096C101.304 3.784 102.392 2.696 103.704 2.696C105.016 2.696 106.104 3.784 106.104 5.096C106.104 6.408 105.016 7.496 103.704 7.496ZM98.3596 11.88C96.9196 11.88 95.9596 13.544 94.4556 16.744C93.7196 17.16 93.0156 16.84 93.0156 16.36C94.2956 13.384 96.4076 8.68 100.28 8.68C102.04 8.68 102.712 9.864 102.712 11.016C102.712 14.472 98.1676 16.36 98.1676 20.584C98.1676 21.608 98.9996 22.12 99.9276 22.12C101.528 22.12 102.712 21 104.6 16.36C104.952 15.816 105.976 16.104 106.04 16.744C104.12 21.224 102.456 25.32 98.4236 25.32C96.2796 25.32 94.8396 24.072 94.8396 22.088C94.8396 19.08 99.6076 16.36 99.6076 13.48C99.6076 12.648 99.2236 11.88 98.3596 11.88ZM127.937 16.36C128.289 15.816 129.313 16.104 129.377 16.744C127.457 21.224 125.793 25.32 122.177 25.32C119.969 25.32 118.625 23.944 118.625 21.96C118.625 18.568 123.489 16.36 123.489 13.512C123.489 12.456 122.849 11.88 121.633 11.88C118.625 11.88 111.105 15.336 111.105 19.304V22.216C111.105 24.04 109.761 25.32 108.385 25.32C107.297 25.32 106.209 24.648 106.209 23.304C106.209 20.424 110.977 19.016 110.977 14.568C110.977 12.84 110.305 11.88 109.409 11.88C108.225 11.88 107.329 13.544 106.049 16.744C105.313 17.16 104.609 16.84 104.609 16.36C105.889 13.384 107.457 8.68 111.329 8.68C112.961 8.68 114.017 9.608 114.401 10.888C116.929 9.608 119.937 8.68 122.849 8.68C125.217 8.68 126.529 9.704 126.529 11.464C126.529 14.44 122.017 17.192 122.017 20.584C122.017 21.32 122.337 22.12 123.265 22.12C124.865 22.12 126.049 21 127.937 16.36ZM149.202 16.744C146.866 23.08 142.386 25.8 138.642 27.112C136.882 30.536 134.93 32.648 130.546 32.648C126.258 32.648 123.058 29.864 123.058 27.944C123.058 27.08 123.762 26.856 125.682 26.856C129.65 26.856 133.97 26.856 137.842 25.704C138.034 25.32 138.194 24.904 138.354 24.52C137.426 24.968 136.274 25.32 134.834 25.32C131.922 25.32 127.762 23.688 127.762 18.024C127.762 13.416 131.602 8.712 138.194 8.712C140.21 8.712 142.61 9.224 144.434 10.056C144.978 9.256 145.778 8.68 146.866 8.68C148.434 8.68 148.914 9.608 148.914 10.536C148.914 13.032 144.978 13.672 142.29 19.112C141.202 21.32 140.37 23.336 139.57 25.096C143.058 23.688 146.034 21.096 147.762 16.36C147.89 16.168 148.114 16.072 148.338 16.072C149.01 16.072 149.202 16.552 149.202 16.744ZM133.97 22.12C138.354 22.12 141.522 19.816 143.186 13.544C142.066 12.904 139.698 11.912 136.722 11.912C132.754 11.912 129.362 14.12 129.362 17.576C129.362 19.72 130.546 22.12 133.97 22.12ZM143.89 13.992V14.024V13.992ZM133.362 29.448C134.77 29.448 135.826 28.744 136.658 27.688C134.066 28.328 132.178 28.392 132.178 28.808C132.178 29.128 132.658 29.448 133.362 29.448Z" fill="#060901"/>
</svg>
