<svg xmlns="http://www.w3.org/2000/svg" width="200" height="79" fill="none"><rect width="198" height="77" x="1" y="1" stroke="#1A2704" stroke-width="2" rx="38.5"/><path fill="#1A2704" d="M40.066 40.36c.352-.544 1.376-.256 1.44.384-1.92 4.48-3.936 8.576-8.096 8.576-2.144 0-4.352-1.152-4.352-4.32 0-2.848 2.24-6.656 4.032-9.696-.768.128-1.536.192-2.272.256-.736 1.728-1.472 3.584-2.144 5.184-1.376.416-1.44.096-1.44-.384.736-1.696 1.376-3.296 1.984-4.768-1.6-.096-2.752-.544-2.752-1.792 0-1.408 1.12-2.528 1.92-2.528.672 0 .288 1.12 2.08 1.12h.128c2.016-4.608 3.776-7.456 6.4-7.456 1.312 0 1.952.96 1.952 2.016 0 1.44-.8 3.008-1.888 4.736 1.6-.224 2.976-.448 3.616-.448 2.272 0 1.056 4.128-.128 4.16-.448 0-.448-.896-1.984-.896-.736 0-2.08.256-3.616.512-1.568 2.464-2.976 5.12-2.976 7.872 0 1.792 1.216 2.624 2.816 2.624 1.664 0 3.648-1.152 5.28-5.152Zm-7.68-8.064c.832-.064 1.664-.16 2.528-.288.544-1.216.576-1.952-.32-1.952-.672 0-1.44.896-2.208 2.24Zm22.956 8.064c.352-.544 1.376-.256 1.44.384-1.92 4.48-3.584 8.576-7.2 8.576-2.208 0-3.552-1.376-3.552-3.36 0-3.392 3.904-5.856 3.904-8 0-.64-.192-1.024-.864-1.024-1.472 0-4.672 1.408-7.008 2.528-.192.48-.384.896-.544 1.28-.736.416-1.44.096-1.44-.384 1.984-5.376 2.304-6.016 2.304-7.36 0-1.664.704-2.592 2.048-2.592 1.44 0 1.952.576 1.952 1.44 0 1.152-1.088 1.728-1.088 2.496 0 1.152 3.552-1.664 6.4-1.664 1.44 0 2.016.896 2.016 1.856 0 3.04-4.288 5.568-4.288 10.048 0 .736.32 1.536 1.248 1.536 1.6 0 2.784-1.12 4.672-5.76Zm23.122 0c.352-.544 1.376-.256 1.44.384-2.048 4.864-4.704 8.608-12.32 8.608-5.664 0-12.512-1.728-12.512-7.488 0-4.416 5.344-5.504 9.952-5.76-3.808-.672-6.944-2.464-6.944-5.92 0-3.168 2.688-5.216 8.032-5.216 5.696 0 13.312 2.528 13.312 4.288 0 1.248-1.152 2.336-2.144 2.336-2.176 0-7.616-3.744-13.76-3.744-2.4 0-3.712 1.12-3.712 2.784 0 2.176 2.944 4.352 9.6 4.352 2.4 0 3.904-.416 5.28-.416 1.024 0 1.28.544 1.28 1.248 0 1.216-1.056 2.752-2.656 2.752-1.536 0-4.544-.928-8.288-.928-4 0-7.52 1.024-7.52 3.552 0 3.296 5.952 4.64 10.08 4.64 7.84 0 9.696-2.56 10.88-5.472Zm24.821 0c.352-.544 1.376-.256 1.44.384-1.92 4.48-3.584 8.576-7.936 8.576-1.664 0-2.816-.704-3.552-1.6-1.472.896-3.296 1.632-5.344 1.632-5.152 0-9.6-4.128-9.6-10.72 0-6.752 4.448-13.664 14.848-13.664 3.52 0 5.92 1.056 7.872 2.208.512-1.056 1.664-2.208 2.976-2.208 1.504 0 2.304 1.088 2.304 2.368 0 3.072-9.28 8.224-9.28 15.072 0 2.496.512 3.712 1.888 3.712 1.312 0 2.496-1.12 4.384-5.76Zm-16.672 5.376c6.976.064 11.456-10.016 13.184-14.4-1.888-1.12-4.672-2.592-8.64-2.592-5.92 0-11.008 3.456-11.008 9.376 0 2.624 1.536 7.68 6.464 7.616Zm34.348-20.896c2.912 0 2.592 4.32 1.632 4.32-.448 0-.224-1.024-2.24-1.024-1.472 0-3.072.16-4.736.416-.992 4.864-6.176 9.088-6.176 13.184 0 2.016 1.28 3.776 3.52 3.776 3.264 0 4.896-2.432 6.048-5.152.352-.544 1.376-.256 1.44.384-1.92 4.48-3.904 8.576-9.376 8.576-2.784 0-5.28-1.888-5.28-5.184 0-5.12 6.656-10.048 7.968-15.296-4.224.736-8.576 1.76-11.776 1.76-1.856 0-2.848-.832-2.848-2.528 0-1.216.736-2.24 1.28-2.24.672 0 0 1.28 2.368 1.28 4.64 0 13.44-2.272 18.176-2.272Zm8.743 6.656a2.417 2.417 0 0 1-2.4-2.4c0-1.312 1.088-2.4 2.4-2.4 1.312 0 2.4 1.088 2.4 2.4 0 1.312-1.088 2.4-2.4 2.4Zm-5.344 4.384c-1.44 0-2.4 1.664-3.904 4.864-.736.416-1.44.096-1.44-.384 1.28-2.976 3.392-7.68 7.264-7.68 1.76 0 2.432 1.184 2.432 2.336 0 3.456-4.544 5.344-4.544 9.568 0 1.024.832 1.536 1.76 1.536 1.6 0 2.784-1.12 4.672-5.76.352-.544 1.376-.256 1.44.384-1.92 4.48-3.584 8.576-7.616 8.576-2.144 0-3.584-1.248-3.584-3.232 0-3.008 4.768-5.728 4.768-8.608 0-.832-.384-1.6-1.248-1.6Zm29.577 4.48c.352-.544 1.376-.256 1.44.384-1.92 4.48-3.584 8.576-7.2 8.576-2.208 0-3.552-1.376-3.552-3.36 0-3.392 4.864-5.6 4.864-8.448 0-1.056-.64-1.632-1.856-1.632-3.008 0-10.528 3.456-10.528 7.424v2.912c0 1.824-1.344 3.104-2.72 3.104-1.088 0-2.176-.672-2.176-2.016 0-2.88 4.768-4.288 4.768-8.736 0-1.728-.672-2.688-1.568-2.688-1.184 0-2.08 1.664-3.36 4.864-.736.416-1.44.096-1.44-.384 1.28-2.976 2.848-7.68 6.72-7.68 1.632 0 2.688.928 3.072 2.208 2.528-1.28 5.536-2.208 8.448-2.208 2.368 0 3.68 1.024 3.68 2.784 0 2.976-4.512 5.728-4.512 9.12 0 .736.32 1.536 1.248 1.536 1.6 0 2.784-1.12 4.672-5.76Zm21.265.384c-2.336 6.336-6.816 9.056-10.56 10.368-1.76 3.424-3.712 5.536-8.096 5.536-4.288 0-7.488-2.784-7.488-4.704 0-.864.704-1.088 2.624-1.088 3.968 0 8.288 0 12.16-1.152.192-.384.352-.8.512-1.184-.928.448-2.08.8-3.52.8-2.912 0-7.072-1.632-7.072-7.296 0-4.608 3.84-9.312 10.432-9.312 2.016 0 4.416.512 6.24 1.344.544-.8 1.344-1.376 2.432-1.376 1.568 0 2.048.928 2.048 1.856 0 2.496-3.936 3.136-6.624 8.576-1.088 2.208-1.92 4.224-2.72 5.984 3.488-1.408 6.464-4 8.192-8.736a.684.684 0 0 1 .576-.288c.672 0 .864.48.864.672ZM159.97 46.12c4.384 0 7.552-2.304 9.216-8.576-1.12-.64-3.488-1.632-6.464-1.632-3.968 0-7.36 2.208-7.36 5.664 0 2.144 1.184 4.544 4.608 4.544Zm9.92-8.128v.032-.032Zm-10.528 15.456c1.408 0 2.464-.704 3.296-1.76-2.592.64-4.48.704-4.48 1.12 0 .32.48.64 1.184.64Z"/></svg>