<svg width="40" height="40" viewBox="0 0 40 40" fill="none" xmlns="http://www.w3.org/2000/svg">
<path d="M19.8352 0C9.0614 0 0.32959 8.73181 0.32959 19.5056C0.32959 27.7726 5.47267 34.8282 12.7263 37.6702C12.5587 36.1235 12.3987 33.7615 12.7949 32.0776C13.153 30.5537 15.0807 22.3857 15.0807 22.3857C15.0807 22.3857 14.494 21.22 14.494 19.4904C14.494 16.7779 16.0636 14.7511 18.0218 14.7511C19.6828 14.7511 20.4905 16.0007 20.4905 17.5017C20.4905 19.178 19.4238 21.6771 18.8752 23.9934C18.418 25.9364 19.8504 27.5212 21.7629 27.5212C25.2297 27.5212 27.8965 23.8639 27.8965 18.5913C27.8965 13.9206 24.544 10.6519 19.7514 10.6519C14.2045 10.6519 10.9434 14.8121 10.9434 19.117C10.9434 20.7933 11.591 22.5915 12.3987 23.5667C12.5587 23.7572 12.5816 23.9325 12.5358 24.123C12.3911 24.7401 12.0558 26.0659 11.9949 26.3326C11.9111 26.6907 11.7129 26.7669 11.3396 26.5916C8.90139 25.4564 7.37752 21.8981 7.37752 19.0332C7.37752 12.8768 11.8501 7.23079 20.2619 7.23079C27.0279 7.23079 32.2853 12.0539 32.2853 18.4999C32.2853 25.2202 28.0489 30.6299 22.1667 30.6299C20.1933 30.6299 18.3342 29.6013 17.6942 28.3898C17.6942 28.3898 16.7189 32.1157 16.4827 33.03C16.0408 34.7215 14.8521 36.8473 14.0597 38.1426C15.8884 38.7065 17.8237 39.0112 19.8352 39.0112C30.609 39.0112 39.3408 30.2794 39.3408 19.5056C39.3408 8.73181 30.609 0 19.8352 0Z" fill="black"/>
</svg>
