<?xml version="1.0" standalone="no"?>
<svg xmlns:xlink="http://www.w3.org/1999/xlink" id="wave" style="transform:rotate(0deg); transition: 0.3s" viewBox="0 0 1440 280" version="1.1" xmlns="http://www.w3.org/2000/svg"> <path style="transform:translate(0, 0px); opacity:1" fill="#E9AE79" d="M0,56L34.3,51.3C68.6,47,137,37,206,70C274.3,103,343,177,411,205.3C480,233,549,215,617,182C685.7,149,754,103,823,107.3C891.4,112,960,168,1029,158.7C1097.1,149,1166,75,1234,37.3C1302.9,0,1371,0,1440,4.7C1508.6,9,1577,19,1646,18.7C1714.3,19,1783,9,1851,32.7C1920,56,1989,112,2057,135.3C2125.7,159,2194,149,2263,149.3C2331.4,149,2400,159,2469,172.7C2537.1,187,2606,205,2674,191.3C2742.9,177,2811,131,2880,93.3C2948.6,56,3017,28,3086,51.3C3154.3,75,3223,149,3291,163.3C3360,177,3429,131,3497,121.3C3565.7,112,3634,140,3703,126C3771.4,112,3840,56,3909,56C3977.1,56,4046,112,4114,121.3C4182.9,131,4251,93,4320,93.3C4388.6,93,4457,131,4526,158.7C4594.3,187,4663,205,4731,191.3C4800,177,4869,131,4903,107.3L4937.1,84L4937.1,280L4902.9,280C4868.6,280,4800,280,4731,280C4662.9,280,4594,280,4526,280C4457.1,280,4389,280,4320,280C4251.4,280,4183,280,4114,280C4045.7,280,3977,280,3909,280C3840,280,3771,280,3703,280C3634.3,280,3566,280,3497,280C3428.6,280,3360,280,3291,280C3222.9,280,3154,280,3086,280C3017.1,280,2949,280,2880,280C2811.4,280,2743,280,2674,280C2605.7,280,2537,280,2469,280C2400,280,2331,280,2263,280C2194.3,280,2126,280,2057,280C1988.6,280,1920,280,1851,280C1782.9,280,1714,280,1646,280C1577.1,280,1509,280,1440,280C1371.4,280,1303,280,1234,280C1165.7,280,1097,280,1029,280C960,280,891,280,823,280C754.3,280,686,280,617,280C548.6,280,480,280,411,280C342.9,280,274,280,206,280C137.1,280,69,280,34,280L0,280Z"/></svg>