<?xml version="1.0" standalone="no"?><svg xmlns="http://www.w3.org/2000/svg" viewBox="0 0 1440 320"><path fill="#B2CF82" fill-opacity="1" d="M0,160L40,160C80,160,160,160,240,181.3C320,203,400,245,480,224C560,203,640,117,720,117.3C800,117,880,203,960,234.7C1040,267,1120,245,1200,224C1280,203,1360,181,1400,170.7L1440,160L1440,320L1400,320C1360,320,1280,320,1200,320C1120,320,1040,320,960,320C880,320,800,320,720,320C640,320,560,320,480,320C400,320,320,320,240,320C160,320,80,320,40,320L0,320Z"></path></svg>