<svg width="40" height="29" viewBox="0 0 40 29" fill="none" xmlns="http://www.w3.org/2000/svg">
<path d="M38.9522 6.60935C38.9522 6.60935 38.5713 3.9197 37.3979 2.7387C35.9121 1.18435 34.2511 1.17673 33.4891 1.08529C28.0337 0.689087 19.8428 0.689087 19.8428 0.689087H19.8276C19.8276 0.689087 11.6368 0.689087 6.18128 1.08529C5.41934 1.17673 3.75831 1.18435 2.27253 2.7387C1.09915 3.9197 0.725798 6.60935 0.725798 6.60935C0.725798 6.60935 0.32959 9.77139 0.32959 12.9258V15.8821C0.32959 19.0366 0.718178 22.1986 0.718178 22.1986C0.718178 22.1986 1.09915 24.8882 2.26491 26.0693C3.75069 27.6236 5.70125 27.5703 6.56986 27.7379C9.69381 28.035 19.8352 28.1265 19.8352 28.1265C19.8352 28.1265 28.0337 28.1112 33.4891 27.7227C34.2511 27.6312 35.9121 27.6236 37.3979 26.0693C38.5713 24.8882 38.9522 22.1986 38.9522 22.1986C38.9522 22.1986 39.3408 19.0442 39.3408 15.8821V12.9258C39.3408 9.77139 38.9522 6.60935 38.9522 6.60935ZM15.8046 19.4709V8.50657L26.3422 14.0078L15.8046 19.4709Z" fill="black"/>
</svg>
